<svg width="27" height="23" viewBox="0 0 27 23" fill="none" xmlns="http://www.w3.org/2000/svg">
<path d="M26 21.9999H1V6.15088H6.76923H21H26V21.9999Z" stroke="#262626" stroke-width="1.5"/>
<path d="M18.9167 6.15095C18.9167 5.47452 18.7766 4.80471 18.5044 4.17976C18.2322 3.55482 17.8332 2.98699 17.3302 2.50868C16.8272 2.03037 16.2301 1.65095 15.5729 1.39209C14.9157 1.13323 14.2114 1 13.5 1C12.7887 1 12.0844 1.13323 11.4272 1.39209C10.77 1.65095 10.1729 2.03037 9.66988 2.50868C9.16689 2.98699 8.76791 3.55482 8.49569 4.17977C8.22348 4.80471 8.08337 5.47452 8.08337 6.15095" stroke="#262626" stroke-width="1.5"/>
</svg>
