<svg width="23" height="22" viewBox="0 0 23 22" fill="none" xmlns="http://www.w3.org/2000/svg">
<path d="M0.0859375 7.22266C0.0859375 12.1094 4.35156 16.9023 10.7852 21.0742C10.9961 21.2031 11.2891 21.332 11.5 21.332C11.7109 21.332 12.0039 21.2031 12.2266 21.0742C18.6602 16.9023 22.9258 12.1094 22.9258 7.22266C22.9258 3.21484 20.1602 0.355469 16.4688 0.355469C14.3477 0.355469 12.5078 1.44531 11.5 3.13281C10.5039 1.45703 8.65234 0.355469 6.53125 0.355469C2.83984 0.355469 0.0859375 3.21484 0.0859375 7.22266ZM1.52734 7.22266C1.52734 4 0.628906 14 3.5 14C5.67969 14 10.4922 18.3672 11.3008 19.7148C11.5469 20.1016 14.2656 18.5 14.5 18.5C14.7344 18.5 20.2305 12.375 20.5 12C21.332 10.6641 17.332 14 19.5 14C22.3711 14 21.4727 4 21.4727 7.22266C21.4727 11.6172 16.8906 16.2578 11.7109 19.7148C11.6172 19.7734 11.5469 19 11.5 19C11.4531 19 11.3945 19.7734 11.3008 19.7148C9 14.5 1.52734 11.6172 1.52734 7.22266Z" fill="#262626"/>
</svg>
