<svg width="25" height="32" viewBox="0 0 25 32" fill="none" xmlns="http://www.w3.org/2000/svg">
<path d="M8.31055 4.23456L5.56176 17.1656H13.3696L12.7706 20H1.66853L5.01628 4.23456H8.31055Z" fill="#262626"/>
<path d="M23.154 12.0745C23.917 12.8873 24.1202 14.1459 23.7637 15.8501C23.3644 17.7111 22.6121 19.0267 21.5069 19.7968C20.4017 20.5668 18.9756 20.9519 17.2286 20.9519H13.8809L12.683 26.6206H9.41008L12.7578 10.8552H19.6245C21.2074 10.8552 22.3839 11.2616 23.154 12.0745ZM18.5121 13.5933H15.4424L14.4584 18.2352H17.5281C18.3053 18.2352 18.9506 18.0462 19.464 17.6683C19.9774 17.2904 20.3197 16.6914 20.4908 15.8714C20.6691 15.0514 20.5764 14.4667 20.2127 14.1174C19.8562 13.768 19.2893 13.5933 18.5121 13.5933Z" fill="#262626"/>
</svg>
